<svg id="cart" xmlns="http://www.w3.org/2000/svg" viewBox="0 0 40 33"><path fill="#ffffff" d="M24.30831,23.046c-3.225,0-6.45-.005-9.674.006a6.36931,6.36931,0,0,0-1.462.144.69069.69069,0,0,0-.333.583c.038.285.216.742.402.779a10.40766,10.40766,0,0,0,1.969.127c5.374.007,10.749-.019,16.123.023a10.3762,10.3762,0,0,1,2.884.45,1.81552,1.81552,0,0,1,.635,3.344,7.4,7.4,0,0,0-1.721,1.996c-1.538,2.58-3.944,2.624-5.33-.014a2.44127,2.44127,0,0,0-2.685-1.507c-1.731.091-3.472.052-5.207.01a1.75284,1.75284,0,0,0-1.952,1.079c-1.597,3.439-4.607,2.779-5.861.014-.183-.403-.534-.937-.893-1.015-1.665-.36-1.945-1.771-2.175-2.991-.632-3.362-1.049-6.763-1.579-10.145-.506-3.222-1.04-6.44-1.581-9.655-.067-.4-.324-.77-.375-1.168-.098-.76-.568-.916-1.213-.908a18.20854,18.20854,0,0,1-1.983-.02,1.98975,1.98975,0,0,1-1.786-1.736A1.93922,1.93922,0,0,1,1.79831.346a8.33341,8.33341,0,0,1,4.856-.312,2.748,2.748,0,0,1,2.634,3c-.029.948.435,1.342,1.359,1.317.909-.025,1.819-.004,2.728-.004q11.535.0015,23.069.001c.579,0,1.161-.037,1.736.012a1.89774,1.89774,0,0,1,1.879,1.88,9.41672,9.41672,0,0,1-.038,1.979q-.6885,5.082-1.443,10.156a10.63213,10.63213,0,0,1-.598,2.858,3.28507,3.28507,0,0,1-3.254,1.814q-4.2165-.006-8.434-.001-.9915.0015-1.984,0"/></svg>